<?xml version="1.0" encoding="UTF-8" standalone="no"?>
<svg
   viewBox="0 0 348 348"
   fill="none"
   version="1.1"
   id="svg156"
   sodipodi:docname="Truth Spin.svg"
   inkscape:version="1.2 (dc2aedaf03, 2022-05-15)"
   xmlns:inkscape="http://www.inkscape.org/namespaces/inkscape"
   xmlns:sodipodi="http://sodipodi.sourceforge.net/DTD/sodipodi-0.dtd"
   xmlns="http://www.w3.org/2000/svg"
   xmlns:svg="http://www.w3.org/2000/svg">
  <defs
     id="defs160" />
  <sodipodi:namedview
     id="namedview158"
     pagecolor="#505050"
     bordercolor="#ffffff"
     borderopacity="1"
     inkscape:showpageshadow="0"
     inkscape:pageopacity="0"
     inkscape:pagecheckerboard="1"
     inkscape:deskcolor="#505050"
     showgrid="false"
     inkscape:zoom="1.6377243"
     inkscape:cx="187.14993"
     inkscape:cy="161.80989"
     inkscape:window-width="1920"
     inkscape:window-height="1009"
     inkscape:window-x="-8"
     inkscape:window-y="-8"
     inkscape:window-maximized="1"
     inkscape:current-layer="svg156" />
  <path
     d="M5.079 5.776h336.913v337.67H5.08z"
     stroke-width="2"
     stroke="#000"
     id="path152" />
  <path
     d="m 285.97578,40.813654 c 0,-8.376 6.966,-15.165 15.56,-15.165 4.126,0 8.084,1.597 11.001,4.441 2.918,2.844 4.558,6.702 4.558,10.724 0,8.376 -6.966,15.165 -15.56,15.165 -8.593,0 -15.559,-6.79 -15.559,-15.165 z"
     stroke-width="2"
     stroke="#000000"
     id="path154" />
  <circle
     style="fill:none;stroke:#000000;stroke-width:8.141;stroke-dasharray:none;stroke-opacity:1"
     id="path264"
     cx="138.31415"
     cy="213.82724"
     r="123.92929" />
  <ellipse
     style="fill:none;stroke:#000000;stroke-width:8.141;stroke-dasharray:none;stroke-opacity:1"
     id="path264-4"
     cx="138.77866"
     cy="213.21625"
     rx="61.964642"
     ry="61.964645" />
  <circle
     style="fill:none;stroke:#000000;stroke-width:8.141;stroke-dasharray:none;stroke-opacity:1"
     id="path264-4-1"
     cx="138.77866"
     cy="213.21625"
     r="30.686337" />
  <circle
     style="fill:none;stroke:#000000;stroke-width:8.141;stroke-dasharray:none;stroke-opacity:1"
     id="path264-4-3"
     cx="138.31415"
     cy="213.82724"
     r="92.946968" />
  <rect
     style="fill:none;stroke:#000000;stroke-width:7;stroke-dasharray:none;stroke-opacity:1"
     id="rect3995"
     width="265.63971"
     height="60.080418"
     x="11.840683"
     y="10.773445"
     ry="30.040209" />
  <rect
     style="fill:none;stroke:#000000;stroke-width:5.10441;stroke-dasharray:none;stroke-opacity:1"
     id="rect3995-5"
     width="193.70474"
     height="43.810699"
     x="-321.97421"
     y="287.52798"
     ry="21.90535"
     transform="rotate(-90)" />
  <g
     aria-label="A ? ( B ? (C ? D))"
     id="text4051"
     style="font-size:27.0494px;font-family:'Courier New';-inkscape-font-specification:'Courier New';text-align:center;text-anchor:middle;stroke:#000000;stroke-width:2.7526">
    <path
       d="m 44.447,48.368465 h -2.786828 l -1.928326,-5.481201 h -8.505769 l -1.928326,5.481201 H 26.643 l 7.158582,-19.666287 h 3.486837 z m -5.520825,-7.726513 -3.447213,-9.65484 -3.460422,9.65484 z"
       style="font-family:Verdana;-inkscape-font-specification:Verdana"
       id="path8166" />
    <path
       d="m 67.573708,33.324878 q 0,1.294356 -0.46227,2.31135 -0.46227,1.003786 -1.21511,1.783042 -0.739632,0.752839 -1.703795,1.413225 -0.964163,0.660386 -2.047196,1.281149 v 2.971735 h -2.364181 v -4.028353 q 0.858502,-0.488685 1.84908,-1.069825 1.003787,-0.581139 1.637757,-1.175486 0.766047,-0.686801 1.188694,-1.413226 0.422647,-0.739632 0.422647,-1.875495 0,-1.492472 -1.016994,-2.218896 -1.003786,-0.739632 -2.60192,-0.739632 -1.426433,0 -2.707581,0.449062 -1.267941,0.449062 -2.007573,0.911332 h -0.132077 v -2.694374 q 0.92454,-0.356608 2.337765,-0.63397 1.426434,-0.29057 2.694374,-0.29057 2.839659,0 4.477416,1.38681 1.650964,1.373603 1.650964,3.632122 z m -5.217047,15.043587 h -2.694374 v -2.786827 h 2.694374 z"
       style="font-family:Verdana;-inkscape-font-specification:Verdana"
       id="path8168" />
    <path
       d="m 88.904169,53.810044 h -3.024567 q -2.337766,-2.681166 -3.632122,-5.851018 -1.294356,-3.169851 -1.294356,-7.145374 0,-3.975522 1.294356,-7.145373 1.294356,-3.169852 3.632122,-5.851018 h 3.024567 v 0.132077 q -1.069825,0.964163 -2.047196,2.232104 -0.964163,1.254733 -1.79625,2.932113 -0.792462,1.624549 -1.294356,3.57929 -0.488685,1.954742 -0.488685,4.120807 0,2.25852 0.475478,4.134015 0.488685,1.875496 1.307563,3.566083 0.792463,1.624549 1.809457,2.932113 1.016995,1.320772 2.033989,2.232104 z"
       style="font-family:Verdana;-inkscape-font-specification:Verdana"
       id="path8170" />
    <path
       d="m 117.82906,42.319332 q 0,1.466056 -0.55472,2.588712 -0.55472,1.122656 -1.49247,1.84908 -1.10945,0.871709 -2.44343,1.241525 -1.32077,0.369816 -3.36797,0.369816 H 102.9968 V 28.702178 h 5.8246 q 2.15286,0 3.22268,0.158492 1.06983,0.158493 2.0472,0.660386 1.08303,0.567932 1.57172,1.466056 0.48868,0.884917 0.48868,2.126443 0,1.400017 -0.71321,2.390596 -0.71322,0.977371 -1.90191,1.571718 v 0.105662 q 1.99436,0.409439 3.14343,1.756626 1.14907,1.333979 1.14907,3.381175 z m -4.39817,-8.862377 q 0,-0.713216 -0.23773,-1.201902 -0.23774,-0.488685 -0.76605,-0.792463 -0.62076,-0.356608 -1.50568,-0.435854 -0.88492,-0.09245 -2.19248,-0.09245 h -3.11702 v 5.679317 h 3.38117 q 1.22832,0 1.95474,-0.118869 0.72643,-0.132078 1.34719,-0.528309 0.62076,-0.396231 0.87171,-1.016994 0.26415,-0.63397 0.26415,-1.492472 z m 1.67738,8.968039 q 0,-1.188695 -0.3566,-1.888704 -0.35661,-0.700008 -1.29436,-1.188694 -0.63397,-0.330193 -1.5453,-0.422647 -0.89813,-0.105662 -2.19248,-0.105662 h -4.1076 v 7.317075 h 3.46042 q 1.717,0 2.81324,-0.171701 1.09624,-0.184908 1.79625,-0.660385 0.73963,-0.515101 1.08303,-1.175487 0.3434,-0.660386 0.3434,-1.703795 z"
       style="font-family:Verdana;-inkscape-font-specification:Verdana"
       id="path8172" />
    <path
       d="m 141.68219,33.324878 q 0,1.294356 -0.46227,2.31135 -0.46227,1.003786 -1.21511,1.783042 -0.73963,0.752839 -1.70379,1.413225 -0.96416,0.660386 -2.0472,1.281149 v 2.971735 h -2.36418 v -4.028353 q 0.8585,-0.488685 1.84908,-1.069825 1.00379,-0.581139 1.63776,-1.175486 0.76605,-0.686801 1.18869,-1.413226 0.42265,-0.739632 0.42265,-1.875495 0,-1.492472 -1.01699,-2.218896 -1.00379,-0.739632 -2.60192,-0.739632 -1.42644,0 -2.70759,0.449062 -1.26794,0.449062 -2.00757,0.911332 h -0.13207 v -2.694374 q 0.92454,-0.356608 2.33776,-0.63397 1.42643,-0.29057 2.69437,-0.29057 2.83966,0 4.47742,1.38681 1.65096,1.373603 1.65096,3.632122 z m -5.21704,15.043587 h -2.69438 v -2.786827 h 2.69438 z"
       style="font-family:Verdana;-inkscape-font-specification:Verdana"
       id="path8174" />
    <path
       d="m 163.01265,53.810044 h -3.02456 q -2.33777,-2.681166 -3.63212,-5.851018 -1.29436,-3.169851 -1.29436,-7.145374 0,-3.975522 1.29436,-7.145373 1.29435,-3.169852 3.63212,-5.851018 h 3.02456 v 0.132077 q -1.06982,0.964163 -2.04719,2.232104 -0.96416,1.254733 -1.79625,2.932113 -0.79246,1.624549 -1.29436,3.57929 -0.48868,1.954742 -0.48868,4.120807 0,2.25852 0.47548,4.134015 0.48868,1.875496 1.30756,3.566083 0.79246,1.624549 1.80946,2.932113 1.01699,1.320772 2.03398,2.232104 z"
       style="font-family:Verdana;-inkscape-font-specification:Verdana"
       id="path8176" />
    <path
       d="m 182.7846,46.942032 q -0.72642,0.316985 -1.32077,0.594347 -0.58114,0.277362 -1.53209,0.58114 -0.80568,0.250946 -1.75663,0.422647 -0.93775,0.184908 -2.07361,0.184908 -2.13965,0 -3.89628,-0.594347 -1.74342,-0.607555 -3.03777,-1.888704 -1.26794,-1.254733 -1.98116,-3.183059 -0.71322,-1.941534 -0.71322,-4.503831 0,-2.430219 0.6868,-4.345338 0.68681,-1.915119 1.98116,-3.23589 1.25474,-1.281149 3.02457,-1.954742 1.78304,-0.673594 3.94911,-0.673594 1.58492,0 3.15664,0.383024 1.58493,0.383024 3.51325,1.347187 v 3.103813 h -0.19811 q -1.62455,-1.360394 -3.22269,-1.981157 -1.59813,-0.620763 -3.42079,-0.620763 -1.49248,0 -2.69438,0.488686 -1.18869,0.475478 -2.12644,1.492472 -0.91133,0.990578 -1.42643,2.509465 -0.5019,1.50568 -0.5019,3.486837 0,2.073611 0.55473,3.566083 0.56793,1.492472 1.45285,2.43022 0.92454,0.977371 2.15285,1.452848 1.24153,0.46227 2.61513,0.46227 1.8887,0 3.53967,-0.647178 1.65096,-0.647178 3.0906,-1.941534 h 0.18491 z"
       style="font-family:Verdana;-inkscape-font-specification:Verdana"
       id="path8178" />
    <path
       d="m 206.62453,33.324878 q 0,1.294356 -0.46227,2.31135 -0.46227,1.003786 -1.21511,1.783042 -0.73963,0.752839 -1.70379,1.413225 -0.96417,0.660386 -2.0472,1.281149 v 2.971735 h -2.36418 v -4.028353 q 0.8585,-0.488685 1.84908,-1.069825 1.00379,-0.581139 1.63776,-1.175486 0.76604,-0.686801 1.18869,-1.413226 0.42265,-0.739632 0.42265,-1.875495 0,-1.492472 -1.017,-2.218896 -1.00378,-0.739632 -2.60192,-0.739632 -1.42643,0 -2.70758,0.449062 -1.26794,0.449062 -2.00757,0.911332 h -0.13208 v -2.694374 q 0.92454,-0.356608 2.33777,-0.63397 1.42643,-0.29057 2.69437,-0.29057 2.83966,0 4.47742,1.38681 1.65096,1.373603 1.65096,3.632122 z m -5.21705,15.043587 h -2.69437 v -2.786827 h 2.69437 z"
       style="font-family:Verdana;-inkscape-font-specification:Verdana"
       id="path8180" />
    <path
       d="m 236.8702,38.555133 q 0,2.681166 -1.17549,4.860439 -1.16228,2.179273 -3.10381,3.381175 -1.34719,0.832086 -3.01136,1.201902 -1.65096,0.369816 -4.35855,0.369816 h -4.9661 V 28.702178 h 4.91327 q 2.87929,0 4.56987,0.422647 1.7038,0.409439 2.87929,1.135863 2.00757,1.254733 3.13022,3.341552 1.12266,2.086819 1.12266,4.952893 z m -2.734,-0.03962 q 0,-2.31135 -0.80567,-3.896276 -0.80567,-1.584926 -2.4038,-2.496258 -1.16228,-0.660386 -2.46985,-0.911332 -1.30756,-0.264155 -3.13022,-0.264155 h -2.45664 v 15.175665 h 2.45664 q 1.8887,0 3.28872,-0.277362 1.41322,-0.277362 2.58871,-1.030202 1.46606,-0.937748 2.19248,-2.469843 0.73963,-1.532095 0.73963,-3.830237 z"
       style="font-family:Verdana;-inkscape-font-specification:Verdana"
       id="path8182" />
    <path
       d="m 248.3477,40.813652 q 0,3.975523 -1.29436,7.145374 -1.29436,3.169852 -3.63212,5.851018 h -3.02457 v -0.132077 q 1.017,-0.911332 2.03399,-2.232104 1.0302,-1.307564 1.80946,-2.932113 0.81887,-1.690587 1.29435,-3.566083 0.48869,-1.875495 0.48869,-4.134015 0,-2.166065 -0.48869,-4.120807 -0.48868,-1.954741 -1.29435,-3.57929 -0.83209,-1.67738 -1.80946,-2.932113 -0.96416,-1.267941 -2.03399,-2.232104 v -0.132077 h 3.02457 q 2.33776,2.681166 3.63212,5.851018 1.29436,3.169851 1.29436,7.145373 z"
       style="font-family:Verdana;-inkscape-font-specification:Verdana"
       id="path8184" />
    <path
       d="m 260.63088,40.813652 q 0,3.975523 -1.29435,7.145374 -1.29436,3.169852 -3.63212,5.851018 h -3.02457 v -0.132077 q 1.01699,-0.911332 2.03399,-2.232104 1.0302,-1.307564 1.80945,-2.932113 0.81888,-1.690587 1.29436,-3.566083 0.48869,-1.875495 0.48869,-4.134015 0,-2.166065 -0.48869,-4.120807 -0.48869,-1.954741 -1.29436,-3.57929 -0.83208,-1.67738 -1.80945,-2.932113 -0.96417,-1.267941 -2.03399,-2.232104 v -0.132077 h 3.02457 q 2.33776,2.681166 3.63212,5.851018 1.29435,3.169851 1.29435,7.145373 z"
       style="font-family:Verdana;-inkscape-font-specification:Verdana"
       id="path8186" />
  </g>
  <g
     aria-label="SUBMIT"
     transform="rotate(90)"
     id="text4051-0"
     style="font-size:45.2547px;font-family:'Courier New';-inkscape-font-specification:'Courier New';text-align:center;text-anchor:middle;stroke:#000000;stroke-width:0">
    <path
       d="m 140.72227,-294.80512 v -7.07105 q 1.92244,1.61309 4.17634,2.43068 2.2539,0.79549 4.55199,0.79549 1.34791,0 2.34228,-0.24307 1.01646,-0.24307 1.67937,-0.66291 0.68501,-0.44194 1.01647,-1.01646 0.33145,-0.59662 0.33145,-1.28163 0,-0.92807 -0.53033,-1.65728 -0.53032,-0.7292 -1.4584,-1.34791 -0.90598,-0.61872 -2.16551,-1.19324 -1.25953,-0.57453 -2.71793,-1.17114 -3.7123,-1.5468 -5.54635,-3.7786 -1.81196,-2.23179 -1.81196,-5.39167 0,-2.47487 0.99437,-4.24263 0.99436,-1.78986 2.69583,-2.9389 1.72357,-1.14905 3.97747,-1.67937 2.25389,-0.55243 4.77295,-0.55243 2.47487,0 4.37521,0.30936 1.92245,0.28726 3.53553,0.90598 v 6.60701 q -0.79549,-0.55243 -1.74567,-0.97227 -0.92807,-0.41985 -1.92244,-0.68501 -0.99436,-0.28726 -1.98873,-0.41984 -0.97227,-0.13259 -1.85615,-0.13259 -1.21534,0 -2.2097,0.24307 -0.99437,0.22097 -1.67938,0.64081 -0.685,0.41985 -1.06065,1.01647 -0.37565,0.57452 -0.37565,1.30372 0,0.79549 0.41984,1.43631 0.41985,0.61871 1.19324,1.19324 0.7734,0.55242 1.87825,1.10485 1.10485,0.53033 2.49696,1.10485 1.90034,0.79549 3.40294,1.70147 1.5247,0.88388 2.60745,2.01083 1.08276,1.12695 1.65728,2.58535 0.57452,1.43631 0.57452,3.35875 0,2.65164 -1.01646,4.4636 -0.99437,1.78985 -2.71794,2.9168 -1.72356,1.10485 -4.02165,1.59099 -2.276,0.48613 -4.81716,0.48613 -2.60744,0 -4.97182,-0.44194 -2.34229,-0.44194 -4.06586,-1.32582 z"
       style="font-weight:bold;font-family:Gadugi;-inkscape-font-specification:'Gadugi, Bold';fill:#000000"
       id="path8189" />
    <path
       d="m 193.37947,-307.31203 q 0,14.27467 -13.3024,14.27467 -12.90466,0 -12.90466,-13.94322 v -18.29633 h 7.15943 v 18.38472 q 0,7.68976 6.01039,7.68976 5.89991,0 5.89991,-7.4246 v -18.64988 h 7.13733 z"
       style="font-weight:bold;font-family:Gadugi;-inkscape-font-specification:'Gadugi, Bold';fill:#000000"
       id="path8191" />
    <path
       d="m 200.27375,-293.58978 v -31.68713 h 11.53464 q 5.30329,0 8.1538,1.94454 2.85052,1.94453 2.85052,5.48006 0,2.56325 -1.74567,4.48569 -1.72356,1.92244 -4.4194,2.67374 v 0.0884 q 3.38084,0.41984 5.39167,2.49696 2.03293,2.07712 2.03293,5.06022 0,4.35312 -3.11568,6.91637 -3.11568,2.54116 -8.50735,2.54116 z m 7.13734,-26.42804 v 7.51299 h 3.13777 q 2.2097,0 3.46923,-1.06066 1.28163,-1.08275 1.28163,-2.961 0,-3.49133 -5.21489,-3.49133 z m 0,12.81627 v 8.35268 h 3.86697 q 2.47487,0 3.86698,-1.14905 1.41421,-1.14904 1.41421,-3.13778 0,-1.90034 -1.39211,-2.98309 -1.37002,-1.08276 -3.84488,-1.08276 z"
       style="font-weight:bold;font-family:Gadugi;-inkscape-font-specification:'Gadugi, Bold';fill:#000000"
       id="path8193" />
    <path
       d="m 265.39367,-293.58978 h -7.04895 v -18.95925 q 0,-3.07148 0.26516,-6.78378 h -0.17677 q -0.55243,2.9168 -0.99437,4.19843 l -7.4246,21.5446 h -5.83361 l -7.55718,-21.32363 q -0.30936,-0.86178 -0.99437,-4.4194 h -0.19887 q 0.28726,4.68457 0.28726,8.22009 v 17.52294 h -6.43023 v -31.68713 h 10.45189 l 6.47443,18.78247 q 0.77339,2.25389 1.12694,4.52989 h 0.13259 q 0.59662,-2.62955 1.25953,-4.57409 l 6.47442,-18.73827 h 10.18673 z"
       style="font-weight:bold;font-family:Gadugi;-inkscape-font-specification:'Gadugi, Bold';fill:#000000"
       id="path8195" />
    <path
       d="m 282.38628,-325.27691 v 5.52425 h -2.65164 v 20.63862 h 2.65164 v 5.52426 h -12.44062 v -5.52426 h 2.65164 v -20.63862 h -2.65164 v -5.52425 z"
       style="font-weight:bold;font-family:Gadugi;-inkscape-font-specification:'Gadugi, Bold';fill:#000000"
       id="path8197" />
    <path
       d="m 309.18996,-319.46539 h -9.03768 v 25.87561 h -7.15944 v -25.87561 h -8.99348 v -5.81152 h 25.1906 z"
       style="font-weight:bold;font-family:Gadugi;-inkscape-font-specification:'Gadugi, Bold';fill:#000000"
       id="path8199" />
  </g>
  <g
     aria-label="→"
     id="text7861"
     style="font-weight:bold;font-size:45.2547px;font-family:Gadugi;-inkscape-font-specification:'Gadugi, Bold';text-align:center;text-anchor:middle;fill:#000000;stroke:#000000;stroke-width:0">
    <path
       d="m 150.52322,159.10242 q 2.93891,3.20407 5.08232,4.88344 2.14341,1.65728 4.04375,2.47487 v 0.99436 q -2.1876,1.06066 -4.24263,2.71794 -2.05502,1.63518 -4.90554,4.81715 h -1.70147 q 2.07712,-4.4415 4.35312,-6.82798 h -35.24475 v -2.2318 h 35.24475 q -1.67938,-2.12131 -2.34229,-3.15987 -0.66291,-1.06066 -1.96663,-3.66811 z"
       id="path8229" />
  </g>
  <g
     aria-label="⊻"
     id="text7861-66"
     style="font-weight:bold;font-size:34.5405px;font-family:Gadugi;-inkscape-font-specification:'Gadugi, Bold';text-align:center;text-anchor:middle;fill:#000000;stroke:#000000;stroke-width:0.7">
    <path
       d="m 128.7943,146.04773 v -1.66968 h 19.96873 v 1.66968 z m 17.47263,-19.96873 -7.48827,14.97655 -7.48827,-14.97655 h 1.8552 l 5.64994,11.23241 5.6162,-11.23241 z"
       id="path8211" />
  </g>
  <g
     aria-label="∧"
     id="text7861-66-8"
     style="font-weight:bold;font-size:34.5405px;font-family:Gadugi;-inkscape-font-specification:'Gadugi, Bold';text-align:center;text-anchor:middle;fill:#000000;stroke:#000000;stroke-width:0.7">
    <path
       d="m 128.79429,115.21301 9.98437,-19.968724 9.98436,19.968724 h -1.8552 l -8.14603,-16.224588 -8.11229,16.224588 z"
       id="path8202" />
  </g>
  <g
     aria-label="∧"
     transform="rotate(90)"
     id="text7861-66-8-6"
     style="font-weight:bold;font-size:34.5405px;font-family:Gadugi;-inkscape-font-specification:'Gadugi, Bold';text-align:center;text-anchor:middle;fill:#000000;stroke:#000000;stroke-width:0.7">
    <path
       d="m 203.26503,-237.32852 9.98436,-19.96873 9.98436,19.96873 h -1.8552 l -8.14603,-16.22459 -8.11229,16.22459 z"
       id="path8208" />
  </g>
  <g
     aria-label="∧"
     transform="scale(-1)"
     id="text7861-66-8-9"
     style="font-weight:bold;font-size:34.5405px;font-family:Gadugi;-inkscape-font-specification:'Gadugi, Bold';text-align:center;text-anchor:middle;fill:#000000;stroke:#000000;stroke-width:0.7">
    <path
       d="m -148.76302,-312.21524 9.98436,-19.96873 9.98437,19.96873 h -1.85521 l -8.14602,-16.22459 -8.1123,16.22459 z"
       id="path8217" />
  </g>
  <g
     aria-label="∧"
     transform="rotate(-90)"
     id="text7861-66-8-6-2"
     style="font-weight:bold;font-size:34.5405px;font-family:Gadugi;-inkscape-font-specification:'Gadugi, Bold';text-align:center;text-anchor:middle;fill:#000000;stroke:#000000;stroke-width:0.7">
    <path
       d="m -223.23377,39.608906 9.98437,-19.968727 9.98436,19.968727 h -1.8552 l -8.14603,-16.224591 -8.1123,16.224591 z"
       id="path8214" />
  </g>
  <g
     aria-label="⊻"
     transform="rotate(90)"
     id="text7861-66-9"
     style="font-weight:bold;font-size:34.5405px;font-family:Gadugi;-inkscape-font-specification:'Gadugi, Bold';text-align:center;text-anchor:middle;fill:#000000;stroke:#000000;stroke-width:0.7">
    <path
       d="m 203.26503,-205.72971 v -1.66968 h 19.96873 v 1.66968 z m 17.47264,-19.96872 -7.48827,14.97654 -7.48828,-14.97654 h 1.85521 l 5.64993,11.23241 5.61621,-11.23241 z"
       id="path8205" />
  </g>
  <g
     aria-label="⊻"
     transform="scale(-1)"
     id="text7861-66-4"
     style="font-weight:bold;font-size:34.5405px;font-family:Gadugi;-inkscape-font-specification:'Gadugi, Bold';text-align:center;text-anchor:middle;fill:#000000;stroke:#000000;stroke-width:0.7">
    <path
       d="m -148.76301,-280.72092 v -1.66968 h 19.96872 v 1.66968 z m 17.47263,-19.96872 -7.48827,14.97654 -7.48827,-14.97654 h 1.8552 l 5.64994,11.23241 5.6162,-11.23241 z"
       id="path8220" />
  </g>
  <g
     aria-label="⊻"
     transform="rotate(-90)"
     id="text7861-66-9-3"
     style="font-weight:bold;font-size:34.5405px;font-family:Gadugi;-inkscape-font-specification:'Gadugi, Bold';text-align:center;text-anchor:middle;fill:#000000;stroke:#000000;stroke-width:0.7">
    <path
       d="m -223.23376,71.377327 v -1.669682 h 19.96872 v 1.669682 z M -205.76113,51.4086 -213.2494,66.385145 -220.73767,51.4086 h 1.8552 l 5.64994,11.232409 5.6162,-11.232409 z"
       id="path8223" />
  </g>
  <g
     aria-label="→"
     transform="rotate(90)"
     id="text7861-6"
     style="font-weight:bold;font-size:45.2547px;font-family:Gadugi;-inkscape-font-specification:'Gadugi, Bold';text-align:center;text-anchor:middle;fill:#000000;stroke:#000000;stroke-width:0">
    <path
       d="m 224.99396,-189.42324 q 2.9389,3.20406 5.08231,4.88344 2.14341,1.65727 4.04376,2.47486 v 0.99437 q -2.18761,1.06066 -4.24263,2.71793 -2.05503,1.63518 -4.90554,4.81715 h -1.70147 q 2.07712,-4.4415 4.35311,-6.82798 h -35.24475 v -2.23179 h 35.24475 q -1.67937,-2.12132 -2.34228,-3.15988 -0.66291,-1.06066 -1.96664,-3.6681 z"
       id="path8226" />
  </g>
  <g
     aria-label="→"
     transform="scale(-1)"
     id="text7861-9"
     style="font-weight:bold;font-size:45.2547px;font-family:Gadugi;-inkscape-font-specification:'Gadugi, Bold';text-align:center;text-anchor:middle;fill:#000000;stroke:#000000;stroke-width:0">
    <path
       d="m -126.56958,-264.34335 q 2.9389,3.20407 5.08231,4.88344 2.14341,1.65728 4.04376,2.47487 v 0.99436 q -2.18761,1.06066 -4.24263,2.71794 -2.05502,1.63518 -4.90554,4.81715 h -1.70147 q 2.07712,-4.4415 4.35311,-6.82798 h -35.24475 v -2.2318 h 35.24475 q -1.67937,-2.12131 -2.34228,-3.15987 -0.66291,-1.06066 -1.96664,-3.66811 z"
       id="path8235" />
  </g>
  <g
     aria-label="→"
     transform="rotate(-90)"
     id="text7861-6-4"
     style="font-weight:bold;font-size:45.2547px;font-family:Gadugi;-inkscape-font-specification:'Gadugi, Bold';text-align:center;text-anchor:middle;fill:#000000;stroke:#000000;stroke-width:0">
    <path
       d="m -198.45181,87.66956 q 2.9389,3.204068 5.08231,4.883441 2.14341,1.657277 4.04375,2.474867 v 0.994366 q -2.1876,1.060657 -4.24262,2.717933 -2.05503,1.635183 -4.90554,4.817153 h -1.70147 q 2.07712,-4.441503 4.35311,-6.827982 h -35.24475 v -2.231799 h 35.24475 q -1.67937,-2.121314 -2.34228,-3.159874 -0.66291,-1.060657 -1.96664,-3.668105 z"
       id="path8232" />
  </g>
</svg>
