<?xml version="1.0" encoding="UTF-8" standalone="no"?>
<svg
   viewBox="0 0 348 348"
   fill="none"
   version="1.1"
   id="svg182"
   sodipodi:docname="Death Note 2.svg"
   inkscape:version="1.2 (dc2aedaf03, 2022-05-15)"
   xml:space="preserve"
   inkscape:export-filename="Coputer.png"
   inkscape:export-xdpi="96"
   inkscape:export-ydpi="96"
   xmlns:inkscape="http://www.inkscape.org/namespaces/inkscape"
   xmlns:sodipodi="http://sodipodi.sourceforge.net/DTD/sodipodi-0.dtd"
   xmlns="http://www.w3.org/2000/svg"
   xmlns:svg="http://www.w3.org/2000/svg"><defs
     id="defs186"><filter
       id="mask-powermask-path-effect9247_inverse"
       inkscape:label="filtermask-powermask-path-effect9247"
       style="color-interpolation-filters:sRGB"
       height="100"
       width="100"
       x="-50"
       y="-50"><feColorMatrix
         id="mask-powermask-path-effect9247_primitive1"
         values="1"
         type="saturate"
         result="fbSourceGraphic" /><feColorMatrix
         id="mask-powermask-path-effect9247_primitive2"
         values="-1 0 0 0 1 0 -1 0 0 1 0 0 -1 0 1 0 0 0 1 0 "
         in="fbSourceGraphic" /></filter></defs><sodipodi:namedview
     id="namedview184"
     pagecolor="#505050"
     bordercolor="#ffffff"
     borderopacity="1"
     inkscape:showpageshadow="0"
     inkscape:pageopacity="0"
     inkscape:pagecheckerboard="1"
     inkscape:deskcolor="#505050"
     showgrid="false"
     inkscape:zoom="2.8284271"
     inkscape:cx="203.46998"
     inkscape:cy="202.23254"
     inkscape:window-width="1920"
     inkscape:window-height="1009"
     inkscape:window-x="-8"
     inkscape:window-y="-8"
     inkscape:window-maximized="1"
     inkscape:current-layer="svg182" /><path
     d="M5 5.8h337v337.6H5z"
     stroke-width="2"
     stroke="#000"
     id="path160" /><path
     d="M282.7 40.6c0-8.4 7-15.2 15.6-15.2 4 0 8 1.6 11 4.4 3 3 4.6 6.7 4.6 10.8 0 8.3-7 15-15.7 15-8.6 0-15.6-6.7-15.6-15z"
     stroke-width="2"
     stroke="#000"
     id="path162" /><rect
     style="fill:none;stroke:#000000;stroke-width:10;stroke-dasharray:none;stroke-opacity:1"
     id="rect6197"
     width="260.89999"
     height="131.5"
     x="43.050003"
     y="108.85"
     ry="1.2952853" /><rect
     style="fill:none;stroke:#000000;stroke-width:3.70558;stroke-dasharray:none;stroke-opacity:1"
     id="rect6197-2"
     width="104.19442"
     height="45.213501"
     x="121.40279"
     y="260.22415"
     ry="0.44535655" /><g
     aria-label="Jon died in
Albania"
     id="text6808"
     style="font-size:30.9222px;font-family:'Courier New';-inkscape-font-specification:'Courier New';text-align:center;text-anchor:middle;stroke:#000000;stroke-width:3.86527"><path
       d="m 85.27812,148.4188 v 11.20326 q 0,2.31011 -1.721255,4.00117 -1.721255,1.69105 -4.106854,1.69105 -1.43438,0 -2.823463,-0.64924 -1.373984,-0.66435 -3.004647,-2.15912 v -4.68061 q 0,-0.45296 0.181185,-0.64924 0.181184,-0.19629 0.452961,-0.19629 0.286876,0 0.468061,0.19629 0.181185,0.19628 0.181185,0.64924 l -0.0151,4.07666 q 1.162602,1.07201 2.295007,1.61556 1.147504,0.52846 2.26481,0.52846 1.238095,0 2.340303,-0.60395 0.83043,-0.45296 1.509873,-1.52497 0.694541,-1.07201 0.694541,-2.29501 V 148.4188 h -4.967482 q -0.468061,0 -0.664344,-0.16608 -0.196283,-0.18119 -0.196283,-0.46806 0,-0.28688 0.196283,-0.45296 0.196283,-0.18119 0.664344,-0.18119 h 9.27062 q 0.452962,0 0.649246,0.18119 0.196283,0.16608 0.196283,0.45296 0,0.28687 -0.196283,0.46806 -0.196284,0.16608 -0.649246,0.16608 z"
       id="path7742" /><path
       d="m 105.96338,158.30847 q 0,2.89896 -2.08362,4.95239 -2.06853,2.05342 -4.997684,2.05342 -2.959351,0 -5.027877,-2.05342 -2.068526,-2.06853 -2.068526,-4.95239 0,-2.89895 2.068526,-4.95238 2.068526,-2.06853 5.027877,-2.06853 2.929154,0 4.997684,2.05343 2.08362,2.05343 2.08362,4.96748 z m -1.28339,0 q 0,-2.3856 -1.70616,-4.06156 -1.69106,-1.67596 -4.106853,-1.67596 -2.415796,0 -4.121953,1.69106 -1.691058,1.67596 -1.691058,4.04646 0,2.3554 1.691058,4.04646 1.706157,1.69106 4.121953,1.69106 2.415793,0 4.106853,-1.67596 1.70616,-1.69106 1.70616,-4.06156 z"
       id="path7744" /><path
       d="m 113.33156,151.74052 v 1.91754 q 1.32869,-1.34378 2.4007,-1.85714 1.07201,-0.51336 2.4158,-0.51336 1.44947,0 2.64227,0.61905 0.84553,0.45296 1.52498,1.50987 0.69454,1.04182 0.69454,2.14402 v 7.98723 h 1.07201 q 0.45296,0 0.64924,0.18119 0.19629,0.16608 0.19629,0.45296 0,0.27178 -0.19629,0.45296 -0.19628,0.18118 -0.64924,0.18118 h -3.39722 q -0.46806,0 -0.66434,-0.18118 -0.19629,-0.18118 -0.19629,-0.45296 0,-0.28688 0.19629,-0.45296 0.19628,-0.18119 0.66434,-0.18119 h 1.05691 v -7.77584 q 0,-1.34379 -0.98141,-2.26481 -0.98142,-0.93613 -2.62718,-0.93613 -1.2532,0 -2.17422,0.51336 -0.92102,0.49826 -2.62718,2.50639 v 7.95703 h 1.43438 q 0.45296,0 0.64925,0.18119 0.19628,0.16608 0.19628,0.45296 0,0.27178 -0.19628,0.45296 -0.19629,0.18118 -0.64925,0.18118 h -4.13705 q -0.45296,0 -0.64925,-0.18118 -0.19628,-0.18118 -0.19628,-0.45296 0,-0.28688 0.19628,-0.45296 0.19629,-0.18119 0.64925,-0.18119 h 1.43438 v -10.52381 h -1.07201 q -0.45296,0 -0.64925,-0.18119 -0.19628,-0.18118 -0.19628,-0.46806 0,-0.27178 0.19628,-0.45296 0.19629,-0.18119 0.64925,-0.18119 z"
       id="path7746" /><path
       d="m 160.75667,145.86712 v 17.68061 h 1.69106 q 0.46806,0 0.66434,0.18119 0.19629,0.16608 0.19629,0.45296 0,0.27178 -0.19629,0.45296 -0.19628,0.18118 -0.66434,0.18118 h -2.97445 v -2.52148 q -2.20441,3.01974 -5.60163,3.01974 -1.72125,0 -3.30662,-0.90592 -1.57027,-0.92102 -2.49129,-2.61208 -0.90593,-1.69106 -0.90593,-3.48781 0,-1.81185 0.90593,-3.4878 0.92102,-1.69106 2.49129,-2.61208 1.58537,-0.92103 3.32172,-0.92103 3.32172,0 5.58653,3.01975 v -7.1568 h -1.69106 q -0.46806,0 -0.66434,-0.18118 -0.19629,-0.18119 -0.19629,-0.46806 0,-0.27178 0.19629,-0.45297 0.19628,-0.18118 0.66434,-0.18118 z m -1.28339,12.44135 q 0,-2.41579 -1.63066,-4.07666 -1.63067,-1.66086 -3.88038,-1.66086 -2.26481,0 -3.89547,1.66086 -1.63066,1.66087 -1.63066,4.07666 0,2.4007 1.63066,4.07666 1.63066,1.66086 3.89547,1.66086 2.24971,0 3.88038,-1.66086 1.63066,-1.67596 1.63066,-4.07666 z"
       id="path7748" /><path
       d="m 173.72648,145.23297 v 3.27643 h -1.87225 v -3.27643 z m 0.0453,6.50755 v 11.80721 h 4.98258 q 0.46807,0 0.66435,0.18119 0.19628,0.16608 0.19628,0.45296 0,0.27178 -0.19628,0.45296 -0.19628,0.18118 -0.66435,0.18118 H 167.5209 q -0.45296,0 -0.64925,-0.18118 -0.19628,-0.18118 -0.19628,-0.45296 0,-0.28688 0.19628,-0.45296 0.19629,-0.18119 0.64925,-0.18119 h 4.98258 v -10.52381 h -3.69919 q -0.45296,0 -0.66434,-0.18119 -0.19629,-0.18118 -0.19629,-0.45296 0,-0.28688 0.19629,-0.46806 0.19628,-0.18119 0.66434,-0.18119 z"
       id="path7750" /><path
       d="m 198.5186,158.58025 h -12.92452 q 0.33218,2.46109 2.05343,3.97097 1.73635,1.49477 4.28804,1.49477 1.41928,0 2.97445,-0.46806 1.55517,-0.46806 2.53659,-1.2381 0.28687,-0.22648 0.49825,-0.22648 0.24158,0 0.42277,0.19629 0.18118,0.18118 0.18118,0.43786 0,0.25668 -0.24158,0.49826 -0.72474,0.75493 -2.58188,1.41928 -1.84204,0.64924 -3.78978,0.64924 -3.26133,0 -5.45064,-2.12892 -2.17422,-2.14402 -2.17422,-5.17886 0,-2.76307 2.03833,-4.741 2.05343,-1.97794 5.07317,-1.97794 3.11034,0 5.11847,2.03833 2.00813,2.02323 1.97794,5.25436 z m -1.2834,-1.28339 q -0.37746,-2.09873 -1.99303,-3.41232 -1.60046,-1.31359 -3.81998,-1.31359 -2.21951,0 -3.81998,1.2985 -1.60046,1.29849 -1.99303,3.42741 z"
       id="path7752" /><path
       d="m 216.42569,145.86712 v 17.68061 h 1.69106 q 0.46806,0 0.66435,0.18119 0.19628,0.16608 0.19628,0.45296 0,0.27178 -0.19628,0.45296 -0.19629,0.18118 -0.66435,0.18118 h -2.97445 v -2.52148 q -2.20441,3.01974 -5.60163,3.01974 -1.72125,0 -3.30662,-0.90592 -1.57027,-0.92102 -2.49129,-2.61208 -0.90592,-1.69106 -0.90592,-3.48781 0,-1.81185 0.90592,-3.4878 0.92102,-1.69106 2.49129,-2.61208 1.58537,-0.92103 3.32172,-0.92103 3.32172,0 5.58653,3.01975 v -7.1568 h -1.69106 q -0.46806,0 -0.66434,-0.18118 -0.19628,-0.18119 -0.19628,-0.46806 0,-0.27178 0.19628,-0.45297 0.19628,-0.18118 0.66434,-0.18118 z m -1.28339,12.44135 q 0,-2.41579 -1.63066,-4.07666 -1.63066,-1.66086 -3.88037,-1.66086 -2.26481,0 -3.89548,1.66086 -1.63066,1.66087 -1.63066,4.07666 0,2.4007 1.63066,4.07666 1.63067,1.66086 3.89548,1.66086 2.24971,0 3.88037,-1.66086 1.63066,-1.67596 1.63066,-4.07666 z"
       id="path7754" /><path
       d="m 247.95183,145.23297 v 3.27643 h -1.87224 v -3.27643 z m 0.0453,6.50755 v 11.80721 h 4.98258 q 0.46806,0 0.66435,0.18119 0.19628,0.16608 0.19628,0.45296 0,0.27178 -0.19628,0.45296 -0.19629,0.18118 -0.66435,0.18118 h -11.23345 q -0.45297,0 -0.64925,-0.18118 -0.19628,-0.18118 -0.19628,-0.45296 0,-0.28688 0.19628,-0.45296 0.19628,-0.18119 0.64925,-0.18119 h 4.98258 v -10.52381 h -3.69919 q -0.45296,0 -0.66435,-0.18119 -0.19628,-0.18118 -0.19628,-0.45296 0,-0.28688 0.19628,-0.46806 0.19629,-0.18119 0.66435,-0.18119 z"
       id="path7756" /><path
       d="m 261.78227,151.74052 v 1.91754 q 1.32869,-1.34378 2.4007,-1.85714 1.07201,-0.51336 2.41579,-0.51336 1.44948,0 2.64228,0.61905 0.84553,0.45296 1.52497,1.50987 0.69454,1.04182 0.69454,2.14402 v 7.98723 h 1.07201 q 0.45297,0 0.64925,0.18119 0.19628,0.16608 0.19628,0.45296 0,0.27178 -0.19628,0.45296 -0.19628,0.18118 -0.64925,0.18118 h -3.39721 q -0.46806,0 -0.66435,-0.18118 -0.19628,-0.18118 -0.19628,-0.45296 0,-0.28688 0.19628,-0.45296 0.19629,-0.18119 0.66435,-0.18119 h 1.05691 v -7.77584 q 0,-1.34379 -0.98142,-2.26481 -0.98141,-0.93613 -2.62718,-0.93613 -1.25319,0 -2.17421,0.51336 -0.92103,0.49826 -2.62718,2.50639 v 7.95703 h 1.43438 q 0.45296,0 0.64924,0.18119 0.19629,0.16608 0.19629,0.45296 0,0.27178 -0.19629,0.45296 -0.19628,0.18118 -0.64924,0.18118 h -4.13706 q -0.45296,0 -0.64924,-0.18118 -0.19628,-0.18118 -0.19628,-0.45296 0,-0.28688 0.19628,-0.45296 0.19628,-0.18119 0.64924,-0.18119 h 1.43438 v -10.52381 h -1.07201 q -0.45296,0 -0.64924,-0.18119 -0.19628,-0.18118 -0.19628,-0.46806 0,-0.27178 0.19628,-0.45296 0.19628,-0.18119 0.64924,-0.18119 z"
       id="path7758" /><path
       d="m 121.60567,197.56517 h -8.3345 l -1.70616,4.63531 h 2.4309 q 0.45296,0 0.64924,0.18119 0.19628,0.16608 0.19628,0.45296 0,0.27177 -0.19628,0.45296 -0.19628,0.18118 -0.64924,0.18118 h -4.74101 q -0.45296,0 -0.64924,-0.18118 -0.19629,-0.18119 -0.19629,-0.45296 0,-0.28688 0.19629,-0.45296 0.19628,-0.18119 0.64924,-0.18119 h 0.98142 l 5.60163,-15.12893 h -3.74448 q -0.45297,0 -0.64925,-0.16608 -0.19628,-0.18119 -0.19628,-0.46806 0,-0.28688 0.19628,-0.45297 0.19628,-0.18118 0.64925,-0.18118 h 6.38676 l 6.19048,16.39722 h 0.98141 q 0.45297,0 0.64925,0.18119 0.19628,0.16608 0.19628,0.45296 0,0.27177 -0.19628,0.45296 -0.19628,0.18118 -0.64925,0.18118 h -4.7259 q -0.46806,0 -0.66434,-0.18118 -0.19629,-0.18119 -0.19629,-0.45296 0,-0.28688 0.19629,-0.45296 0.19628,-0.18119 0.66434,-0.18119 h 2.4158 z m -0.48316,-1.26829 -3.50291,-9.22533 h -0.46806 l -3.39721,9.22533 z"
       id="path7760" /><path
       d="m 136.6289,184.51987 v 17.68061 h 4.98258 q 0.46806,0 0.66435,0.18119 0.19628,0.16608 0.19628,0.45296 0,0.27177 -0.19628,0.45296 -0.19629,0.18118 -0.66435,0.18118 h -11.23345 q -0.45296,0 -0.64925,-0.18118 -0.19628,-0.18119 -0.19628,-0.45296 0,-0.28688 0.19628,-0.45296 0.19629,-0.18119 0.64925,-0.18119 h 4.98258 v -16.39722 h -3.65389 q -0.45297,0 -0.66435,-0.18119 -0.19628,-0.18118 -0.19628,-0.46806 0,-0.27177 0.19628,-0.45296 0.19628,-0.18118 0.66435,-0.18118 z"
       id="path7762" /><path
       d="m 149.7648,184.51987 v 8.40999 q 2.295,-2.98955 5.54123,-2.98955 2.77817,0 4.7561,2.02323 1.97793,2.00813 1.97793,4.93729 0,2.95935 -2.00813,5.01277 -1.99303,2.05343 -4.7259,2.05343 -3.32172,0 -5.54123,-2.98955 v 2.49129 h -2.97445 q -0.45297,0 -0.64925,-0.18118 -0.19628,-0.18119 -0.19628,-0.45296 0,-0.28688 0.19628,-0.45296 0.19628,-0.18119 0.64925,-0.18119 h 1.70615 v -16.39722 h -1.70615 q -0.45297,0 -0.64925,-0.18119 -0.19628,-0.18118 -0.19628,-0.46806 0,-0.27177 0.19628,-0.45296 0.19628,-0.18118 0.64925,-0.18118 z m 11.00697,12.44135 q 0,-2.4007 -1.64576,-4.06156 -1.64576,-1.67596 -3.85018,-1.67596 -2.20441,0 -3.85017,1.67596 -1.64576,1.66086 -1.64576,4.06156 0,2.4007 1.64576,4.07666 1.64576,1.66086 3.85017,1.66086 2.20442,0 3.85018,-1.66086 1.64576,-1.67596 1.64576,-4.07666 z"
       id="path7764" /><path
       d="m 176.74623,203.46877 v -1.82694 q -2.76307,2.3252 -5.90361,2.3252 -2.2799,0 -3.5633,-1.1475 -1.28339,-1.1626 -1.28339,-2.83856 0,-1.84205 1.69106,-3.21603 1.69106,-1.37399 4.93728,-1.37399 0.87573,0 1.90244,0.12079 1.02672,0.10569 2.21952,0.34727 v -2.05342 q 0,-1.04182 -0.96632,-1.81185 -0.96632,-0.77004 -2.89896,-0.77004 -1.47967,0 -4.15215,0.86063 -0.48316,0.15099 -0.61905,0.15099 -0.24158,0 -0.42276,-0.18119 -0.16609,-0.18118 -0.16609,-0.45296 0,-0.25668 0.15099,-0.40766 0.21138,-0.22648 1.70616,-0.61905 2.3554,-0.63415 3.5633,-0.63415 2.4007,0 3.74448,1.1928 1.34379,1.1777 1.34379,2.67248 v 8.39489 h 1.69106 q 0.46806,0 0.66434,0.18119 0.19628,0.16608 0.19628,0.45296 0,0.27177 -0.19628,0.45296 -0.19628,0.18118 -0.66434,0.18118 z m 0,-6.31127 q -0.89083,-0.25667 -1.88734,-0.37746 -0.99652,-0.12079 -2.09873,-0.12079 -2.76307,0 -4.31823,1.1928 -1.17771,0.89082 -1.17771,2.12892 0,1.1475 0.89083,1.93263 0.90592,0.78514 2.62718,0.78514 1.64576,0 3.04994,-0.64925 1.41928,-0.66434 2.91406,-2.09872 z"
       id="path7766" /><path
       d="m 187.55692,190.39327 v 1.91754 q 1.32869,-1.34378 2.4007,-1.85714 1.07201,-0.51336 2.41579,-0.51336 1.44948,0 2.64228,0.61905 0.84553,0.45296 1.52497,1.50987 0.69454,1.04181 0.69454,2.14402 v 7.98723 h 1.07201 q 0.45297,0 0.64925,0.18119 0.19628,0.16608 0.19628,0.45296 0,0.27177 -0.19628,0.45296 -0.19628,0.18118 -0.64925,0.18118 H 194.91 q -0.46806,0 -0.66434,-0.18118 -0.19629,-0.18119 -0.19629,-0.45296 0,-0.28688 0.19629,-0.45296 0.19628,-0.18119 0.66434,-0.18119 h 1.05691 v -7.77585 q 0,-1.34378 -0.98142,-2.26481 -0.98141,-0.93612 -2.62718,-0.93612 -1.25319,0 -2.17421,0.51336 -0.92103,0.49826 -2.62718,2.50639 v 7.95703 h 1.43438 q 0.45296,0 0.64924,0.18119 0.19629,0.16608 0.19629,0.45296 0,0.27177 -0.19629,0.45296 -0.19628,0.18118 -0.64924,0.18118 h -4.13705 q -0.45297,0 -0.64925,-0.18118 -0.19628,-0.18119 -0.19628,-0.45296 0,-0.28688 0.19628,-0.45296 0.19628,-0.18119 0.64925,-0.18119 h 1.43437 v -10.52381 h -1.07201 q -0.45296,0 -0.64924,-0.18119 -0.19628,-0.18118 -0.19628,-0.46806 0,-0.27178 0.19628,-0.45296 0.19628,-0.18119 0.64924,-0.18119 z"
       id="path7768" /><path
       d="m 210.83916,183.88572 v 3.27643 h -1.87225 v -3.27643 z m 0.0453,6.50755 v 11.80721 h 4.98258 q 0.46806,0 0.66435,0.18119 0.19628,0.16608 0.19628,0.45296 0,0.27177 -0.19628,0.45296 -0.19629,0.18118 -0.66435,0.18118 h -11.23345 q -0.45296,0 -0.64925,-0.18118 -0.19628,-0.18119 -0.19628,-0.45296 0,-0.28688 0.19628,-0.45296 0.19629,-0.18119 0.64925,-0.18119 h 4.98258 v -10.52381 h -3.69919 q -0.45296,0 -0.66434,-0.18119 -0.19629,-0.18118 -0.19629,-0.45296 0,-0.28688 0.19629,-0.46806 0.19628,-0.18119 0.66434,-0.18119 z"
       id="path7770" /><path
       d="m 232.41525,203.46877 v -1.82694 q -2.76307,2.3252 -5.90361,2.3252 -2.27991,0 -3.5633,-1.1475 -1.28339,-1.1626 -1.28339,-2.83856 0,-1.84205 1.69106,-3.21603 1.69105,-1.37399 4.93728,-1.37399 0.87573,0 1.90244,0.12079 1.02672,0.10569 2.21952,0.34727 v -2.05342 q 0,-1.04182 -0.96632,-1.81185 -0.96632,-0.77004 -2.89896,-0.77004 -1.47968,0 -4.15215,0.86063 -0.48316,0.15099 -0.61905,0.15099 -0.24158,0 -0.42276,-0.18119 -0.16609,-0.18118 -0.16609,-0.45296 0,-0.25668 0.15099,-0.40766 0.21138,-0.22648 1.70615,-0.61905 2.35541,-0.63415 3.56331,-0.63415 2.40069,0 3.74448,1.1928 1.34379,1.1777 1.34379,2.67248 v 8.39489 h 1.69105 q 0.46807,0 0.66435,0.18119 0.19628,0.16608 0.19628,0.45296 0,0.27177 -0.19628,0.45296 -0.19628,0.18118 -0.66435,0.18118 z m 0,-6.31127 q -0.89083,-0.25667 -1.88735,-0.37746 -0.99651,-0.12079 -2.09872,-0.12079 -2.76307,0 -4.31824,1.1928 -1.1777,0.89082 -1.1777,2.12892 0,1.1475 0.89083,1.93263 0.90592,0.78514 2.62718,0.78514 1.64576,0 3.04994,-0.64925 1.41928,-0.66434 2.91406,-2.09872 z"
       id="path7772" /></g><path
     sodipodi:type="star"
     style="fill:none;stroke:#000000;stroke-width:10;stroke-dasharray:none;stroke-opacity:1"
     id="path7692"
     inkscape:flatsided="false"
     sodipodi:sides="3"
     sodipodi:cx="69.296463"
     sodipodi:cy="259.86172"
     sodipodi:r1="59.801758"
     sodipodi:r2="29.900881"
     sodipodi:arg1="0"
     sodipodi:arg2="1.0471976"
     inkscape:rounded="0"
     inkscape:randomized="0"
     d="m 129.09822,259.86172 -44.851318,25.89493 -44.851318,25.89492 -2e-6,-51.78985 2e-6,-51.78984 44.851321,25.89492 z"
     inkscape:transform-center-x="-9.2697297"
     transform="matrix(0.62003063,0,0,0.62003063,222.70484,121.70868)" /><path
     sodipodi:type="star"
     style="fill:none;stroke:#000000;stroke-width:10;stroke-dasharray:none;stroke-opacity:1"
     id="path7692-6"
     inkscape:flatsided="false"
     sodipodi:sides="3"
     sodipodi:cx="69.296463"
     sodipodi:cy="259.86172"
     sodipodi:r1="59.801758"
     sodipodi:r2="29.900881"
     sodipodi:arg1="0"
     sodipodi:arg2="1.0471976"
     inkscape:rounded="0"
     inkscape:randomized="0"
     d="m 129.09822,259.86172 -44.851318,25.89493 -44.851318,25.89492 -2e-6,-51.78985 2e-6,-51.78984 44.851321,25.89492 z"
     inkscape:transform-center-x="9.2697291"
     transform="matrix(-0.62003063,0,0,-0.62003063,124.29516,443.95314)"
     inkscape:transform-center-y="2.052376e-06" /><g
     aria-label="1/12"
     id="text7740"
     style="font-size:28.3452px;font-family:'Courier New';-inkscape-font-specification:'Courier New';text-align:center;text-anchor:middle;stroke:#000000;stroke-width:3.54315"><path
       d="m 148.6841,273.66853 v 16.44243 h 3.98605 q 0.41521,0 0.59514,0.16609 0.17992,0.15224 0.17992,0.41521 0,0.24913 -0.17992,0.41521 -0.17993,0.16609 -0.59514,0.16609 h -9.13469 q -0.41521,0 -0.59513,-0.16609 -0.17993,-0.16608 -0.17993,-0.41521 0,-0.26297 0.17993,-0.41521 0.17992,-0.16609 0.59513,-0.16609 h 3.98605 v -14.83694 l -3.79228,1.19028 q -0.27681,0.083 -0.40137,0.083 -0.20761,0 -0.38753,-0.16608 -0.16609,-0.17993 -0.16609,-0.41522 0,-0.2076 0.1384,-0.38753 0.11073,-0.11072 0.45674,-0.23528 z"
       id="path7775" /><path
       d="m 170.34438,273.05955 -9.35613,20.04095 q -0.23529,0.51209 -0.60898,0.51209 -0.23529,0 -0.41522,-0.17992 -0.16608,-0.16609 -0.16608,-0.3737 0,-0.16608 0.1384,-0.45673 l 9.34229,-20.04094 q 0.15225,-0.31833 0.29065,-0.41521 0.13841,-0.0969 0.33217,-0.0969 0.23529,0 0.40137,0.17993 0.17993,0.16608 0.17993,0.37369 0,0.15224 -0.1384,0.45673 z"
       id="path7777" /><path
       d="m 182.70388,273.66853 v 16.44243 h 3.98604 q 0.41522,0 0.59514,0.16609 0.17993,0.15224 0.17993,0.41521 0,0.24913 -0.17993,0.41521 -0.17992,0.16609 -0.59514,0.16609 h -9.13468 q -0.41521,0 -0.59514,-0.16609 -0.17992,-0.16608 -0.17992,-0.41521 0,-0.26297 0.17992,-0.41521 0.17993,-0.16609 0.59514,-0.16609 h 3.98604 v -14.83694 l -3.79227,1.19028 q -0.27681,0.083 -0.40138,0.083 -0.2076,0 -0.38753,-0.16608 -0.16608,-0.17993 -0.16608,-0.41522 0,-0.2076 0.1384,-0.38753 0.11072,-0.11072 0.45673,-0.23528 z"
       id="path7779" /><path
       d="m 194.13607,290.11096 h 8.92708 v -0.45673 q 0,-0.41521 0.16609,-0.59514 0.16608,-0.17992 0.42905,-0.17992 0.24913,0 0.41521,0.17992 0.16609,0.17993 0.16609,0.59514 v 1.61933 h -11.23843 v -1.71621 q 3.54315,-3.1833 6.89253,-6.47732 1.56397,-1.53629 2.14527,-2.25599 0.5813,-0.71971 0.7889,-1.25948 0.22145,-0.55362 0.22145,-1.10724 0,-1.49476 -1.20412,-2.64352 -1.20411,-1.14876 -2.90649,-1.14876 -1.52244,0 -2.69888,0.87195 -1.17644,0.87195 -1.52245,2.15911 -0.083,0.33217 -0.2076,0.42905 -0.16609,0.13841 -0.38754,0.13841 -0.23528,0 -0.40137,-0.15225 -0.15224,-0.16608 -0.15224,-0.38753 0,-0.66434 0.7197,-1.79926 0.73354,-1.13491 2.00686,-1.78541 1.28716,-0.6505 2.62968,-0.6505 2.17295,0 3.73692,1.5086 1.56397,1.50861 1.56397,3.41859 0,0.80275 -0.26297,1.48093 -0.26297,0.66434 -0.89963,1.46708 -0.62282,0.78891 -2.25599,2.3944 -4.09677,4.0414 -6.67109,6.26971 z"
       id="path7781" /></g></svg>
