<?xml version="1.0" encoding="UTF-8" standalone="no"?>
<svg
   viewBox="0 0 348 348"
   fill="none"
   version="1.1"
   id="svg210"
   sodipodi:docname="Switches.svg"
   inkscape:version="1.2 (dc2aedaf03, 2022-05-15)"
   xmlns:inkscape="http://www.inkscape.org/namespaces/inkscape"
   xmlns:sodipodi="http://sodipodi.sourceforge.net/DTD/sodipodi-0.dtd"
   xmlns="http://www.w3.org/2000/svg"
   xmlns:svg="http://www.w3.org/2000/svg">
  <defs
     id="defs214" />
  <sodipodi:namedview
     id="namedview212"
     pagecolor="#505050"
     bordercolor="#ffffff"
     borderopacity="1"
     inkscape:showpageshadow="0"
     inkscape:pageopacity="0"
     inkscape:pagecheckerboard="1"
     inkscape:deskcolor="#505050"
     showgrid="false"
     inkscape:zoom="1.1954023"
     inkscape:cx="64.413462"
     inkscape:cy="158.10577"
     inkscape:window-width="1920"
     inkscape:window-height="1009"
     inkscape:window-x="-8"
     inkscape:window-y="-8"
     inkscape:window-maximized="1"
     inkscape:current-layer="svg210" />
  <path
     d="M5.08 5.776h336.91v337.67H5.08z"
     stroke-width="2"
     stroke="#000"
     id="path174" />
  <path
     d="M282.734 40.554c0-8.376 6.966-15.165 15.56-15.165 4.126 0 8.084 1.594 11 4.44 2.92 2.842 4.56 6.7 4.56 10.722 0 8.376-6.967 15.165-15.56 15.165-8.594 0-15.56-6.79-15.56-15.166z"
     stroke-width="2"
     stroke="#000"
     id="path176" />
  <g
     transform="matrix(1.40195 0 0 -1.40195 -33.225 406.785)"
     stroke="#000"
     id="g182">
    <circle
       r="17"
       cy="67"
       cx="50"
       transform="translate(6.188 81.925)"
       id="circle178" />
    <path
       d="M50.188 148.925h12l6 57h-24z"
       fill="#fff"
       id="path180" />
  </g>
  <g
     transform="translate(31 -10.785) scale(1.40195)"
     stroke="#000"
     id="g188">
    <circle
       r="17"
       cy="67"
       cx="50"
       transform="translate(6.188 81.925)"
       id="circle184" />
    <path
       d="M50.188 148.925h12l6 57h-24z"
       fill="#fff"
       id="path186" />
  </g>
  <g
     transform="matrix(1.40195 0 0 -1.40195 95.228 406.785)"
     stroke="#000"
     id="g194">
    <circle
       r="17"
       cy="67"
       cx="50"
       transform="translate(6.188 81.925)"
       id="circle190" />
    <path
       d="M50.188 148.925h12l6 57h-24z"
       fill="#fff"
       id="path192" />
  </g>
  <g
     transform="matrix(1.40195 0 0 -1.40195 159.455 406.785)"
     stroke="#000"
     id="g200">
    <circle
       r="17"
       cy="67"
       cx="50"
       transform="translate(6.188 81.925)"
       id="circle196" />
    <path
       d="M50.188 148.925h12l6 57h-24z"
       fill="#fff"
       id="path198" />
  </g>
  <g
     transform="translate(223.682 -10.785) scale(1.40195)"
     stroke="#000"
     id="g206">
    <circle
       r="17"
       cy="67"
       cx="50"
       transform="translate(6.188 81.925)"
       id="circle202" />
    <path
       d="M50.188 148.925h12l6 57h-24z"
       fill="#fff"
       id="path204" />
  </g>
  <circle
     style="fill:none;stroke:#000000;stroke-width:2;stroke-dasharray:none;stroke-opacity:1"
     id="path428"
     cx="45.79332"
     cy="304.5"
     r="15.703679" />
  <circle
     style="fill:none;stroke:#000000;stroke-width:2;stroke-dasharray:none;stroke-opacity:1"
     id="path428-0"
     cx="109.77277"
     cy="304.5"
     r="15.703679" />
  <circle
     style="fill:none;stroke:#000000;stroke-width:2;stroke-dasharray:none;stroke-opacity:1"
     id="path428-0-4"
     cx="174.24632"
     cy="304.5"
     r="15.703679" />
  <circle
     style="fill:none;stroke:#000000;stroke-width:2;stroke-dasharray:none;stroke-opacity:1"
     id="path428-0-8"
     cx="238.47333"
     cy="304.5"
     r="15.703679" />
  <circle
     style="fill:none;stroke:#000000;stroke-width:2;stroke-dasharray:none;stroke-opacity:1"
     id="path428-0-6"
     cx="302.44931"
     cy="304.49631"
     r="15.703679" />
  <g
     id="g1218"
     transform="translate(-0.46576675)">
    <rect
       style="fill:none;stroke:#000000;stroke-width:2;stroke-dasharray:none;stroke-opacity:1"
       id="rect1107"
       width="64.226997"
       height="62.356075"
       x="141.88727"
       y="20.076923" />
    <text
       xml:space="preserve"
       style="font-size:45.2547px;font-family:Impact;-inkscape-font-specification:'Impact, Normal';text-align:center;text-anchor:middle;fill:none;stroke:#000000;stroke-width:2;stroke-dasharray:none;stroke-opacity:1"
       x="173.93448"
       y="65.761658"
       id="text1163"><tspan
         sodipodi:role="line"
         id="tspan1161"
         x="173.93448"
         y="65.761658"
         style="font-style:normal;font-variant:normal;font-weight:normal;font-stretch:normal;font-family:Consolas;-inkscape-font-specification:Consolas;fill:#000000;fill-opacity:1">5</tspan></text>
  </g>
</svg>
